# xmcd CD database file
#
# Track frame offsets:
#	150
#	41931
#	77152
#	120913
#	145670
#	179397
#	215840
#
# Disc length: 3255 seconds
#
# Revision: 0
# Processed by: cddbd v1.5.1PL0 Copyright (c) Steve Scherf et al.
# Submitted via: CDex 1.51
#
DISCID=610cb507
DTITLE=Baldo Martínez grupo - NAI
DYEAR=2001
DGENRE=Jazz
TTITLE0=O conxuro
TTITLE1=Paisaxes Galaicas
TTITLE2=O paso do tempo
TTITLE3=Camino de Bretun
TTITLE4=De norte a sur
TTITLE5=Los mundos de Argos
TTITLE6=Galería de recuerdos
EXTD=YEAR: 2001
EXTT0=
EXTT1=
EXTT2=
EXTT3=
EXTT4=
EXTT5=
EXTT6=
PLAYORDER=
